<svg xmlns="http://www.w3.org/2000/svg" style="width: 100%; height: 100%; transform: translate3d(0px, 0px, 0px);" viewBox="0 0 1851 848" preserveAspectRatio="xMidYMid meet" width="1851" height="848"><defs><clipPath id="__lottie_element_4"><rect x="0" y="0" width="1851" height="848"></rect></clipPath></defs><g clip-path="url(#__lottie_element_4)"><g style="display: block;" opacity="1" transform="matrix(1, 0, 0, 1, 0, 0)"><rect fill="#ffffff" width="1851" height="848"></rect></g><g style="display: block;" opacity="1" transform="matrix(1, 0, 0, 1, 1581.08, -55)"><g opacity="1" transform="matrix(1, 0, 0, 1, 378.566, 293.009)"><path fill="rgb(145, 168, 246)" fill-opacity="1" d="M 11.176 9.13 C 11.176 9.13 -11.177 9.13 -11.177 9.13 C -14.036 9.13 -16.363 6.803 -16.363 3.943 C -16.363 1.14 -14.127 -1.152 -11.344 -1.24 C -11.27 -5.603 -7.697 -9.13 -3.316 -9.13 C -0.597 -9.13 1.928 -7.746 3.405 -5.485 C 6.418 -5.915 9.107 -4.021 9.87 -1.242 C 9.87 -1.242 11.176 -1.242 11.176 -1.242 C 14.036 -1.242 16.363 1.084 16.363 3.943 C 16.363 6.803 14.036 9.13 11.176 9.13 Z M -11.177 0.292 C -13.191 0.292 -14.828 1.93 -14.828 3.943 C -14.828 5.957 -13.191 7.596 -11.177 7.596 C -11.177 7.596 11.176 7.596 11.176 7.596 C 13.19 7.596 14.828 5.957 14.828 3.943 C 14.828 1.93 13.19 0.292 11.176 0.292 C 11.176 0.292 8.596 0.292 8.596 0.292 C 8.596 0.292 8.493 -0.354 8.493 -0.354 C 8.105 -2.796 5.787 -4.505 3.202 -3.888 C 3.202 -3.888 2.637 -3.751 2.637 -3.751 C 2.637 -3.751 2.354 -4.259 2.354 -4.259 C 1.206 -6.316 -0.966 -7.594 -3.316 -7.594 C -6.896 -7.594 -9.81 -4.682 -9.81 -1.102 C -9.81 -0.912 -9.797 -0.726 -9.781 -0.54 C -9.781 -0.54 -9.71 0.292 -9.71 0.292 C -9.71 0.292 -11.177 0.292 -11.177 0.292 Z"></path></g></g><g style="display: block;" opacity="1" transform="matrix(1, 0, 0, 1, 75.1323, 0)"><g opacity="1" transform="matrix(1, 0, 0, 1, 1307.6, 90.485)"><path fill="rgb(145, 168, 246)" fill-opacity="1" d="M 11.176 9.13 C 11.176 9.13 -11.177 9.13 -11.177 9.13 C -14.036 9.13 -16.364 6.804 -16.364 3.945 C -16.364 1.14 -14.126 -1.152 -11.343 -1.24 C -11.27 -5.603 -7.698 -9.13 -3.317 -9.13 C -0.598 -9.13 1.928 -7.747 3.405 -5.485 C 6.416 -5.915 9.107 -4.02 9.87 -1.242 C 9.87 -1.242 11.176 -1.242 11.176 -1.242 C 14.036 -1.242 16.363 1.085 16.363 3.945 C 16.363 6.804 14.036 9.13 11.176 9.13 Z M -11.177 0.292 C -13.19 0.292 -14.828 1.931 -14.828 3.945 C -14.828 5.958 -13.19 7.596 -11.177 7.596 C -11.177 7.596 11.176 7.596 11.176 7.596 C 13.19 7.596 14.828 5.958 14.828 3.945 C 14.828 1.931 13.19 0.292 11.176 0.292 C 11.176 0.292 8.596 0.292 8.596 0.292 C 8.596 0.292 8.495 -0.354 8.495 -0.354 C 8.107 -2.795 5.786 -4.501 3.203 -3.886 C 3.203 -3.886 2.638 -3.751 2.638 -3.751 C 2.638 -3.751 2.355 -4.258 2.355 -4.258 C 1.207 -6.317 -0.966 -7.595 -3.317 -7.595 C -6.897 -7.595 -9.81 -4.682 -9.81 -1.102 C -9.81 -0.912 -9.797 -0.725 -9.781 -0.54 C -9.781 -0.54 -9.708 0.292 -9.708 0.292 C -9.708 0.292 -11.177 0.292 -11.177 0.292 Z"></path></g></g><g style="display: block;" opacity="1" transform="matrix(1, 0, 0, 1, 75.1323, 0)"><g opacity="1" transform="matrix(1, 0, 0, 1, 1577.02, 194.431)"><path fill="rgb(145, 168, 246)" fill-opacity="1" d="M 11.176 9.13 C 11.176 9.13 -11.177 9.13 -11.177 9.13 C -14.036 9.13 -16.364 6.804 -16.364 3.945 C -16.364 1.141 -14.126 -1.152 -11.343 -1.24 C -11.27 -5.603 -7.698 -9.13 -3.317 -9.13 C -0.599 -9.13 1.928 -7.747 3.405 -5.485 C 6.416 -5.915 9.106 -4.02 9.87 -1.242 C 9.87 -1.242 11.176 -1.242 11.176 -1.242 C 14.036 -1.242 16.363 1.085 16.363 3.945 C 16.363 6.804 14.036 9.13 11.176 9.13 Z M -11.177 0.292 C -13.191 0.292 -14.828 1.932 -14.828 3.945 C -14.828 5.959 -13.191 7.596 -11.177 7.596 C -11.177 7.596 11.176 7.596 11.176 7.596 C 13.19 7.596 14.828 5.959 14.828 3.945 C 14.828 1.932 13.19 0.292 11.176 0.292 C 11.176 0.292 8.596 0.292 8.596 0.292 C 8.596 0.292 8.495 -0.354 8.495 -0.354 C 8.106 -2.796 5.786 -4.501 3.203 -3.886 C 3.203 -3.886 2.637 -3.751 2.637 -3.751 C 2.637 -3.751 2.354 -4.258 2.354 -4.258 C 1.206 -6.317 -0.967 -7.595 -3.317 -7.595 C -6.898 -7.595 -9.81 -4.682 -9.81 -1.102 C -9.81 -0.912 -9.796 -0.725 -9.781 -0.54 C -9.781 -0.54 -9.708 0.292 -9.708 0.292 C -9.708 0.292 -11.177 0.292 -11.177 0.292 Z"></path></g></g><g style="display: block;" opacity="1" transform="matrix(1, 0, 0, 1, 75.1323, 0)"><g opacity="1" transform="matrix(1, 0, 0, 1, 665.92, 57.436)"><path fill="rgb(145, 168, 246)" fill-opacity="1" d="M 11.176 9.13 C 11.176 9.13 -11.177 9.13 -11.177 9.13 C -14.036 9.13 -16.364 6.804 -16.364 3.945 C -16.364 1.14 -14.127 -1.152 -11.344 -1.24 C -11.27 -5.603 -7.698 -9.13 -3.317 -9.13 C -0.599 -9.13 1.928 -7.747 3.405 -5.485 C 6.415 -5.915 9.107 -4.02 9.87 -1.242 C 9.87 -1.242 11.176 -1.242 11.176 -1.242 C 14.036 -1.242 16.363 1.085 16.363 3.945 C 16.363 6.804 14.036 9.13 11.176 9.13 Z M -11.177 0.292 C -13.191 0.292 -14.828 1.931 -14.828 3.945 C -14.828 5.958 -13.191 7.596 -11.177 7.596 C -11.177 7.596 11.176 7.596 11.176 7.596 C 13.19 7.596 14.828 5.958 14.828 3.945 C 14.828 1.931 13.19 0.292 11.176 0.292 C 11.176 0.292 8.596 0.292 8.596 0.292 C 8.596 0.292 8.493 -0.354 8.493 -0.354 C 8.106 -2.796 5.785 -4.501 3.203 -3.886 C 3.203 -3.886 2.637 -3.751 2.637 -3.751 C 2.637 -3.751 2.354 -4.258 2.354 -4.258 C 1.206 -6.317 -0.967 -7.595 -3.317 -7.595 C -6.898 -7.595 -9.81 -4.682 -9.81 -1.102 C -9.81 -0.912 -9.796 -0.725 -9.781 -0.54 C -9.781 -0.54 -9.71 0.292 -9.71 0.292 C -9.71 0.292 -11.177 0.292 -11.177 0.292 Z"></path></g></g><g style="display: block;" opacity="1" transform="matrix(1, 0, 0, 1, 75.1323, 0)"><g opacity="1" transform="matrix(1, 0, 0, 1, 185.977, 715.955)"><path fill="rgb(145, 168, 246)" fill-opacity="1" d="M 11.178 9.13 C 11.178 9.13 -11.176 9.13 -11.176 9.13 C -14.036 9.13 -16.363 6.803 -16.363 3.943 C -16.363 1.14 -14.125 -1.152 -11.342 -1.24 C -11.268 -5.604 -7.696 -9.13 -3.315 -9.13 C -0.597 -9.13 1.93 -7.746 3.406 -5.485 C 6.42 -5.916 9.108 -4.021 9.871 -1.242 C 9.871 -1.242 11.178 -1.242 11.178 -1.242 C 14.038 -1.242 16.364 1.084 16.364 3.943 C 16.364 6.803 14.038 9.13 11.178 9.13 Z M -11.176 0.292 C -13.19 0.292 -14.828 1.93 -14.828 3.943 C -14.828 5.957 -13.19 7.596 -11.176 7.596 C -11.176 7.596 11.178 7.596 11.178 7.596 C 13.191 7.596 14.829 5.957 14.829 3.943 C 14.829 1.93 13.191 0.292 11.178 0.292 C 11.178 0.292 8.598 0.292 8.598 0.292 C 8.598 0.292 8.495 -0.354 8.495 -0.354 C 8.107 -2.796 5.789 -4.504 3.204 -3.887 C 3.204 -3.887 2.639 -3.753 2.639 -3.753 C 2.639 -3.753 2.356 -4.259 2.356 -4.259 C 1.208 -6.316 -0.965 -7.595 -3.315 -7.595 C -6.896 -7.595 -9.808 -4.684 -9.808 -1.104 C -9.808 -0.913 -9.796 -0.726 -9.78 -0.54 C -9.78 -0.54 -9.708 0.292 -9.708 0.292 C -9.708 0.292 -11.176 0.292 -11.176 0.292 Z"></path></g></g><g style="display: block;" opacity="1" transform="matrix(1, 0, 0, 1, 75.1323, 0)"><g opacity="1" transform="matrix(1, 0, 0, 1, 925.332, 131.381)"><path fill="rgb(145, 168, 246)" fill-opacity="1" d="M 11.176 9.13 C 11.176 9.13 -11.177 9.13 -11.177 9.13 C -14.037 9.13 -16.364 6.804 -16.364 3.944 C -16.364 1.14 -14.127 -1.151 -11.344 -1.239 C -11.27 -5.602 -7.698 -9.13 -3.318 -9.13 C -0.599 -9.13 1.928 -7.747 3.405 -5.485 C 6.415 -5.915 9.107 -4.021 9.87 -1.242 C 9.87 -1.242 11.176 -1.242 11.176 -1.242 C 14.035 -1.242 16.363 1.085 16.363 3.944 C 16.363 6.804 14.035 9.13 11.176 9.13 Z M -11.177 0.293 C -13.191 0.293 -14.828 1.931 -14.828 3.944 C -14.828 5.958 -13.191 7.596 -11.177 7.596 C -11.177 7.596 11.176 7.596 11.176 7.596 C 13.19 7.596 14.827 5.958 14.827 3.944 C 14.827 1.931 13.19 0.293 11.176 0.293 C 11.176 0.293 8.596 0.293 8.596 0.293 C 8.596 0.293 8.493 -0.354 8.493 -0.354 C 8.106 -2.796 5.785 -4.501 3.202 -3.887 C 3.202 -3.887 2.637 -3.752 2.637 -3.752 C 2.637 -3.752 2.355 -4.259 2.355 -4.259 C 1.206 -6.317 -0.967 -7.595 -3.318 -7.595 C -6.898 -7.595 -9.81 -4.683 -9.81 -1.102 C -9.81 -0.912 -9.797 -0.726 -9.781 -0.54 C -9.781 -0.54 -9.71 0.293 -9.71 0.293 C -9.71 0.293 -11.177 0.293 -11.177 0.293 Z"></path></g></g><g style="display: block;" opacity="1" transform="matrix(1, 0, 0, 1, 75.1323, 0)"><g opacity="1" transform="matrix(1, 0, 0, 1, 1307.45, 700.043)"><path fill="rgb(145, 168, 246)" fill-opacity="1" d="M 11.177 9.13 C 11.177 9.13 -11.177 9.13 -11.177 9.13 C -14.036 9.13 -16.363 6.804 -16.363 3.943 C -16.363 1.14 -14.125 -1.152 -11.342 -1.24 C -11.269 -5.603 -7.697 -9.13 -3.317 -9.13 C -0.598 -9.13 1.929 -7.747 3.406 -5.486 C 6.417 -5.916 9.107 -4.021 9.87 -1.242 C 9.87 -1.242 11.177 -1.242 11.177 -1.242 C 14.037 -1.242 16.363 1.084 16.363 3.943 C 16.363 6.804 14.037 9.13 11.177 9.13 Z M -11.177 0.292 C -13.191 0.292 -14.828 1.931 -14.828 3.943 C -14.828 5.957 -13.191 7.595 -11.177 7.595 C -11.177 7.595 11.177 7.595 11.177 7.595 C 13.191 7.595 14.829 5.957 14.829 3.943 C 14.829 1.931 13.191 0.292 11.177 0.292 C 11.177 0.292 8.597 0.292 8.597 0.292 C 8.597 0.292 8.495 -0.354 8.495 -0.354 C 8.106 -2.797 5.787 -4.502 3.204 -3.888 C 3.204 -3.888 2.638 -3.752 2.638 -3.752 C 2.638 -3.752 2.355 -4.26 2.355 -4.26 C 1.207 -6.317 -0.966 -7.596 -3.317 -7.596 C -6.897 -7.596 -9.809 -4.684 -9.809 -1.103 C -9.809 -0.913 -9.796 -0.727 -9.781 -0.541 C -9.781 -0.541 -9.709 0.292 -9.709 0.292 C -9.709 0.292 -11.177 0.292 -11.177 0.292 Z"></path></g></g><g style="display: block;" opacity="1" transform="matrix(1, 0, 0, 1, 75.1323, 188)"><g opacity="1" transform="matrix(1, 0, 0, 1, 1708.45, 429.043)"><path fill="rgb(145, 168, 246)" fill-opacity="1" d="M 11.177 9.13 C 11.177 9.13 -11.177 9.13 -11.177 9.13 C -14.036 9.13 -16.363 6.804 -16.363 3.943 C -16.363 1.14 -14.125 -1.152 -11.342 -1.24 C -11.269 -5.603 -7.697 -9.13 -3.317 -9.13 C -0.598 -9.13 1.929 -7.748 3.406 -5.486 C 6.417 -5.916 9.107 -4.021 9.87 -1.242 C 9.87 -1.242 11.177 -1.242 11.177 -1.242 C 14.037 -1.242 16.363 1.084 16.363 3.943 C 16.363 6.804 14.037 9.13 11.177 9.13 Z M -11.177 0.292 C -13.191 0.292 -14.828 1.931 -14.828 3.943 C -14.828 5.957 -13.191 7.595 -11.177 7.595 C -11.177 7.595 11.177 7.595 11.177 7.595 C 13.191 7.595 14.829 5.957 14.829 3.943 C 14.829 1.931 13.191 0.292 11.177 0.292 C 11.177 0.292 8.597 0.292 8.597 0.292 C 8.597 0.292 8.495 -0.354 8.495 -0.354 C 8.106 -2.797 5.787 -4.502 3.204 -3.888 C 3.204 -3.888 2.638 -3.752 2.638 -3.752 C 2.638 -3.752 2.355 -4.259 2.355 -4.259 C 1.207 -6.318 -0.966 -7.596 -3.317 -7.596 C -6.897 -7.596 -9.809 -4.683 -9.809 -1.103 C -9.809 -0.913 -9.796 -0.727 -9.781 -0.541 C -9.781 -0.541 -9.709 0.292 -9.709 0.292 C -9.709 0.292 -11.177 0.292 -11.177 0.292 Z"></path></g></g><g style="display: block;" opacity="1" transform="matrix(1, 0, 0, 1, 75.1323, 37.6591)"><g opacity="1" transform="matrix(1, 0, 0, 1, 699.447, 644.043)"><path fill="rgb(145, 168, 246)" fill-opacity="1" d="M 11.177 9.13 C 11.177 9.13 -11.177 9.13 -11.177 9.13 C -14.036 9.13 -16.363 6.804 -16.363 3.943 C -16.363 1.14 -14.126 -1.152 -11.343 -1.24 C -11.269 -5.603 -7.697 -9.13 -3.316 -9.13 C -0.597 -9.13 1.929 -7.747 3.406 -5.486 C 6.416 -5.916 9.107 -4.021 9.87 -1.242 C 9.87 -1.242 11.177 -1.242 11.177 -1.242 C 14.037 -1.242 16.364 1.084 16.364 3.943 C 16.364 6.804 14.037 9.13 11.177 9.13 Z M -11.177 0.292 C -13.19 0.292 -14.828 1.931 -14.828 3.943 C -14.828 5.957 -13.19 7.595 -11.177 7.595 C -11.177 7.595 11.177 7.595 11.177 7.595 C 13.191 7.595 14.829 5.957 14.829 3.943 C 14.829 1.931 13.191 0.292 11.177 0.292 C 11.177 0.292 8.597 0.292 8.597 0.292 C 8.597 0.292 8.495 -0.354 8.495 -0.354 C 8.107 -2.797 5.786 -4.502 3.204 -3.888 C 3.204 -3.888 2.639 -3.752 2.639 -3.752 C 2.639 -3.752 2.356 -4.26 2.356 -4.26 C 1.207 -6.317 -0.966 -7.596 -3.316 -7.596 C -6.896 -7.596 -9.809 -4.684 -9.809 -1.103 C -9.809 -0.913 -9.796 -0.727 -9.78 -0.541 C -9.78 -0.541 -9.709 0.292 -9.709 0.292 C -9.709 0.292 -11.177 0.292 -11.177 0.292 Z"></path></g></g><g style="display: block;" opacity="1" transform="matrix(1, 0, 0, 1, 3234.95, 0)"><g opacity="1" transform="matrix(1, 0, 0, 1, 378.566, 293.009)"><path fill="rgb(145, 168, 246)" fill-opacity="1" d="M 11.176 9.13 C 11.176 9.13 -11.177 9.13 -11.177 9.13 C -14.036 9.13 -16.363 6.803 -16.363 3.943 C -16.363 1.14 -14.127 -1.152 -11.344 -1.24 C -11.27 -5.603 -7.697 -9.13 -3.316 -9.13 C -0.597 -9.13 1.928 -7.746 3.405 -5.485 C 6.418 -5.915 9.107 -4.021 9.87 -1.242 C 9.87 -1.242 11.176 -1.242 11.176 -1.242 C 14.036 -1.242 16.363 1.084 16.363 3.943 C 16.363 6.803 14.036 9.13 11.176 9.13 Z M -11.177 0.292 C -13.191 0.292 -14.828 1.93 -14.828 3.943 C -14.828 5.957 -13.191 7.596 -11.177 7.596 C -11.177 7.596 11.176 7.596 11.176 7.596 C 13.19 7.596 14.828 5.957 14.828 3.943 C 14.828 1.93 13.19 0.292 11.176 0.292 C 11.176 0.292 8.596 0.292 8.596 0.292 C 8.596 0.292 8.493 -0.354 8.493 -0.354 C 8.105 -2.796 5.787 -4.505 3.202 -3.888 C 3.202 -3.888 2.637 -3.751 2.637 -3.751 C 2.637 -3.751 2.354 -4.259 2.354 -4.259 C 1.206 -6.316 -0.966 -7.594 -3.316 -7.594 C -6.896 -7.594 -9.81 -4.682 -9.81 -1.102 C -9.81 -0.912 -9.797 -0.726 -9.781 -0.54 C -9.781 -0.54 -9.71 0.292 -9.71 0.292 C -9.71 0.292 -11.177 0.292 -11.177 0.292 Z"></path></g></g><g style="display: block;" opacity="1" transform="matrix(1, 0, 0, 1, 1729, 0)"><g opacity="1" transform="matrix(1, 0, 0, 1, 1307.6, 90.485)"><path fill="rgb(145, 168, 246)" fill-opacity="1" d="M 11.176 9.13 C 11.176 9.13 -11.177 9.13 -11.177 9.13 C -14.036 9.13 -16.364 6.804 -16.364 3.945 C -16.364 1.14 -14.126 -1.152 -11.343 -1.24 C -11.27 -5.603 -7.698 -9.13 -3.317 -9.13 C -0.598 -9.13 1.928 -7.747 3.405 -5.485 C 6.416 -5.915 9.107 -4.02 9.87 -1.242 C 9.87 -1.242 11.176 -1.242 11.176 -1.242 C 14.036 -1.242 16.363 1.085 16.363 3.945 C 16.363 6.804 14.036 9.13 11.176 9.13 Z M -11.177 0.292 C -13.19 0.292 -14.828 1.931 -14.828 3.945 C -14.828 5.958 -13.19 7.596 -11.177 7.596 C -11.177 7.596 11.176 7.596 11.176 7.596 C 13.19 7.596 14.828 5.958 14.828 3.945 C 14.828 1.931 13.19 0.292 11.176 0.292 C 11.176 0.292 8.596 0.292 8.596 0.292 C 8.596 0.292 8.495 -0.354 8.495 -0.354 C 8.107 -2.795 5.786 -4.501 3.203 -3.886 C 3.203 -3.886 2.638 -3.751 2.638 -3.751 C 2.638 -3.751 2.355 -4.258 2.355 -4.258 C 1.207 -6.317 -0.966 -7.595 -3.317 -7.595 C -6.897 -7.595 -9.81 -4.682 -9.81 -1.102 C -9.81 -0.912 -9.797 -0.725 -9.781 -0.54 C -9.781 -0.54 -9.708 0.292 -9.708 0.292 C -9.708 0.292 -11.177 0.292 -11.177 0.292 Z"></path></g></g><g style="display: block;" opacity="1" transform="matrix(1, 0, 0, 1, 1729, 0)"><g opacity="1" transform="matrix(1, 0, 0, 1, 1577.02, 194.431)"><path fill="rgb(145, 168, 246)" fill-opacity="1" d="M 11.176 9.13 C 11.176 9.13 -11.177 9.13 -11.177 9.13 C -14.036 9.13 -16.364 6.804 -16.364 3.945 C -16.364 1.141 -14.126 -1.152 -11.343 -1.24 C -11.27 -5.603 -7.698 -9.13 -3.317 -9.13 C -0.599 -9.13 1.928 -7.747 3.405 -5.485 C 6.416 -5.915 9.106 -4.02 9.87 -1.242 C 9.87 -1.242 11.176 -1.242 11.176 -1.242 C 14.036 -1.242 16.363 1.085 16.363 3.945 C 16.363 6.804 14.036 9.13 11.176 9.13 Z M -11.177 0.292 C -13.191 0.292 -14.828 1.932 -14.828 3.945 C -14.828 5.959 -13.191 7.596 -11.177 7.596 C -11.177 7.596 11.176 7.596 11.176 7.596 C 13.19 7.596 14.828 5.959 14.828 3.945 C 14.828 1.932 13.19 0.292 11.176 0.292 C 11.176 0.292 8.596 0.292 8.596 0.292 C 8.596 0.292 8.495 -0.354 8.495 -0.354 C 8.106 -2.796 5.786 -4.501 3.203 -3.886 C 3.203 -3.886 2.637 -3.751 2.637 -3.751 C 2.637 -3.751 2.354 -4.258 2.354 -4.258 C 1.206 -6.317 -0.967 -7.595 -3.317 -7.595 C -6.898 -7.595 -9.81 -4.682 -9.81 -1.102 C -9.81 -0.912 -9.796 -0.725 -9.781 -0.54 C -9.781 -0.54 -9.708 0.292 -9.708 0.292 C -9.708 0.292 -11.177 0.292 -11.177 0.292 Z"></path></g></g><g style="display: block;" opacity="1" transform="matrix(1, 0, 0, 1, 1729, 0)"><g opacity="1" transform="matrix(1, 0, 0, 1, 665.92, 57.436)"><path fill="rgb(145, 168, 246)" fill-opacity="1" d="M 11.176 9.13 C 11.176 9.13 -11.177 9.13 -11.177 9.13 C -14.036 9.13 -16.364 6.804 -16.364 3.945 C -16.364 1.14 -14.127 -1.152 -11.344 -1.24 C -11.27 -5.603 -7.698 -9.13 -3.317 -9.13 C -0.599 -9.13 1.928 -7.747 3.405 -5.485 C 6.415 -5.915 9.107 -4.02 9.87 -1.242 C 9.87 -1.242 11.176 -1.242 11.176 -1.242 C 14.036 -1.242 16.363 1.085 16.363 3.945 C 16.363 6.804 14.036 9.13 11.176 9.13 Z M -11.177 0.292 C -13.191 0.292 -14.828 1.931 -14.828 3.945 C -14.828 5.958 -13.191 7.596 -11.177 7.596 C -11.177 7.596 11.176 7.596 11.176 7.596 C 13.19 7.596 14.828 5.958 14.828 3.945 C 14.828 1.931 13.19 0.292 11.176 0.292 C 11.176 0.292 8.596 0.292 8.596 0.292 C 8.596 0.292 8.493 -0.354 8.493 -0.354 C 8.106 -2.796 5.785 -4.501 3.203 -3.886 C 3.203 -3.886 2.637 -3.751 2.637 -3.751 C 2.637 -3.751 2.354 -4.258 2.354 -4.258 C 1.206 -6.317 -0.967 -7.595 -3.317 -7.595 C -6.898 -7.595 -9.81 -4.682 -9.81 -1.102 C -9.81 -0.912 -9.796 -0.725 -9.781 -0.54 C -9.781 -0.54 -9.71 0.292 -9.71 0.292 C -9.71 0.292 -11.177 0.292 -11.177 0.292 Z"></path></g></g><g style="display: block;" opacity="1" transform="matrix(1, 0, 0, 1, 1729, 0)"><g opacity="1" transform="matrix(1, 0, 0, 1, 185.977, 715.955)"><path fill="rgb(145, 168, 246)" fill-opacity="1" d="M 11.178 9.13 C 11.178 9.13 -11.176 9.13 -11.176 9.13 C -14.036 9.13 -16.363 6.803 -16.363 3.943 C -16.363 1.14 -14.125 -1.152 -11.342 -1.24 C -11.268 -5.604 -7.696 -9.13 -3.315 -9.13 C -0.597 -9.13 1.93 -7.746 3.406 -5.485 C 6.42 -5.916 9.108 -4.021 9.871 -1.242 C 9.871 -1.242 11.178 -1.242 11.178 -1.242 C 14.038 -1.242 16.364 1.084 16.364 3.943 C 16.364 6.803 14.038 9.13 11.178 9.13 Z M -11.176 0.292 C -13.19 0.292 -14.828 1.93 -14.828 3.943 C -14.828 5.957 -13.19 7.596 -11.176 7.596 C -11.176 7.596 11.178 7.596 11.178 7.596 C 13.191 7.596 14.829 5.957 14.829 3.943 C 14.829 1.93 13.191 0.292 11.178 0.292 C 11.178 0.292 8.598 0.292 8.598 0.292 C 8.598 0.292 8.495 -0.354 8.495 -0.354 C 8.107 -2.796 5.789 -4.504 3.204 -3.887 C 3.204 -3.887 2.639 -3.753 2.639 -3.753 C 2.639 -3.753 2.356 -4.259 2.356 -4.259 C 1.208 -6.316 -0.965 -7.595 -3.315 -7.595 C -6.896 -7.595 -9.808 -4.684 -9.808 -1.104 C -9.808 -0.913 -9.796 -0.726 -9.78 -0.54 C -9.78 -0.54 -9.708 0.292 -9.708 0.292 C -9.708 0.292 -11.176 0.292 -11.176 0.292 Z"></path></g></g><g style="display: block;" opacity="1" transform="matrix(1, 0, 0, 1, 1729, 0)"><g opacity="1" transform="matrix(1, 0, 0, 1, 925.332, 131.381)"><path fill="rgb(145, 168, 246)" fill-opacity="1" d="M 11.176 9.13 C 11.176 9.13 -11.177 9.13 -11.177 9.13 C -14.037 9.13 -16.364 6.804 -16.364 3.944 C -16.364 1.14 -14.127 -1.151 -11.344 -1.239 C -11.27 -5.602 -7.698 -9.13 -3.318 -9.13 C -0.599 -9.13 1.928 -7.747 3.405 -5.485 C 6.415 -5.915 9.107 -4.021 9.87 -1.242 C 9.87 -1.242 11.176 -1.242 11.176 -1.242 C 14.035 -1.242 16.363 1.085 16.363 3.944 C 16.363 6.804 14.035 9.13 11.176 9.13 Z M -11.177 0.293 C -13.191 0.293 -14.828 1.931 -14.828 3.944 C -14.828 5.958 -13.191 7.596 -11.177 7.596 C -11.177 7.596 11.176 7.596 11.176 7.596 C 13.19 7.596 14.827 5.958 14.827 3.944 C 14.827 1.931 13.19 0.293 11.176 0.293 C 11.176 0.293 8.596 0.293 8.596 0.293 C 8.596 0.293 8.493 -0.354 8.493 -0.354 C 8.106 -2.796 5.785 -4.501 3.202 -3.887 C 3.202 -3.887 2.637 -3.752 2.637 -3.752 C 2.637 -3.752 2.355 -4.259 2.355 -4.259 C 1.206 -6.317 -0.967 -7.595 -3.318 -7.595 C -6.898 -7.595 -9.81 -4.683 -9.81 -1.102 C -9.81 -0.912 -9.797 -0.726 -9.781 -0.54 C -9.781 -0.54 -9.71 0.293 -9.71 0.293 C -9.71 0.293 -11.177 0.293 -11.177 0.293 Z"></path></g></g><g style="display: block;" opacity="1" transform="matrix(1, 0, 0, 1, 1729, 0)"><g opacity="1" transform="matrix(1, 0, 0, 1, 1307.45, 700.043)"><path fill="rgb(145, 168, 246)" fill-opacity="1" d="M 11.177 9.13 C 11.177 9.13 -11.177 9.13 -11.177 9.13 C -14.036 9.13 -16.363 6.804 -16.363 3.943 C -16.363 1.14 -14.125 -1.152 -11.342 -1.24 C -11.269 -5.603 -7.697 -9.13 -3.317 -9.13 C -0.598 -9.13 1.929 -7.747 3.406 -5.486 C 6.417 -5.916 9.107 -4.021 9.87 -1.242 C 9.87 -1.242 11.177 -1.242 11.177 -1.242 C 14.037 -1.242 16.363 1.084 16.363 3.943 C 16.363 6.804 14.037 9.13 11.177 9.13 Z M -11.177 0.292 C -13.191 0.292 -14.828 1.931 -14.828 3.943 C -14.828 5.957 -13.191 7.595 -11.177 7.595 C -11.177 7.595 11.177 7.595 11.177 7.595 C 13.191 7.595 14.829 5.957 14.829 3.943 C 14.829 1.931 13.191 0.292 11.177 0.292 C 11.177 0.292 8.597 0.292 8.597 0.292 C 8.597 0.292 8.495 -0.354 8.495 -0.354 C 8.106 -2.797 5.787 -4.502 3.204 -3.888 C 3.204 -3.888 2.638 -3.752 2.638 -3.752 C 2.638 -3.752 2.355 -4.26 2.355 -4.26 C 1.207 -6.317 -0.966 -7.596 -3.317 -7.596 C -6.897 -7.596 -9.809 -4.684 -9.809 -1.103 C -9.809 -0.913 -9.796 -0.727 -9.781 -0.541 C -9.781 -0.541 -9.709 0.292 -9.709 0.292 C -9.709 0.292 -11.177 0.292 -11.177 0.292 Z"></path></g></g><g style="display: block;" opacity="1" transform="matrix(1, 0, 0, 1, 1729, 0)"><g opacity="1" transform="matrix(1, 0, 0, 1, 1708.45, 429.043)"><path fill="rgb(145, 168, 246)" fill-opacity="1" d="M 11.177 9.13 C 11.177 9.13 -11.177 9.13 -11.177 9.13 C -14.036 9.13 -16.363 6.804 -16.363 3.943 C -16.363 1.14 -14.125 -1.152 -11.342 -1.24 C -11.269 -5.603 -7.697 -9.13 -3.317 -9.13 C -0.598 -9.13 1.929 -7.748 3.406 -5.486 C 6.417 -5.916 9.107 -4.021 9.87 -1.242 C 9.87 -1.242 11.177 -1.242 11.177 -1.242 C 14.037 -1.242 16.363 1.084 16.363 3.943 C 16.363 6.804 14.037 9.13 11.177 9.13 Z M -11.177 0.292 C -13.191 0.292 -14.828 1.931 -14.828 3.943 C -14.828 5.957 -13.191 7.595 -11.177 7.595 C -11.177 7.595 11.177 7.595 11.177 7.595 C 13.191 7.595 14.829 5.957 14.829 3.943 C 14.829 1.931 13.191 0.292 11.177 0.292 C 11.177 0.292 8.597 0.292 8.597 0.292 C 8.597 0.292 8.495 -0.354 8.495 -0.354 C 8.106 -2.797 5.787 -4.502 3.204 -3.888 C 3.204 -3.888 2.638 -3.752 2.638 -3.752 C 2.638 -3.752 2.355 -4.259 2.355 -4.259 C 1.207 -6.318 -0.966 -7.596 -3.317 -7.596 C -6.897 -7.596 -9.809 -4.683 -9.809 -1.103 C -9.809 -0.913 -9.796 -0.727 -9.781 -0.541 C -9.781 -0.541 -9.709 0.292 -9.709 0.292 C -9.709 0.292 -11.177 0.292 -11.177 0.292 Z"></path></g></g><g style="display: block;" opacity="1" transform="matrix(1, 0, 0, 1, 1729, 0)"><g opacity="1" transform="matrix(1, 0, 0, 1, 699.447, 644.043)"><path fill="rgb(145, 168, 246)" fill-opacity="1" d="M 11.177 9.13 C 11.177 9.13 -11.177 9.13 -11.177 9.13 C -14.036 9.13 -16.363 6.804 -16.363 3.943 C -16.363 1.14 -14.126 -1.152 -11.343 -1.24 C -11.269 -5.603 -7.697 -9.13 -3.316 -9.13 C -0.597 -9.13 1.929 -7.747 3.406 -5.486 C 6.416 -5.916 9.107 -4.021 9.87 -1.242 C 9.87 -1.242 11.177 -1.242 11.177 -1.242 C 14.037 -1.242 16.364 1.084 16.364 3.943 C 16.364 6.804 14.037 9.13 11.177 9.13 Z M -11.177 0.292 C -13.19 0.292 -14.828 1.931 -14.828 3.943 C -14.828 5.957 -13.19 7.595 -11.177 7.595 C -11.177 7.595 11.177 7.595 11.177 7.595 C 13.191 7.595 14.829 5.957 14.829 3.943 C 14.829 1.931 13.191 0.292 11.177 0.292 C 11.177 0.292 8.597 0.292 8.597 0.292 C 8.597 0.292 8.495 -0.354 8.495 -0.354 C 8.107 -2.797 5.786 -4.502 3.204 -3.888 C 3.204 -3.888 2.639 -3.752 2.639 -3.752 C 2.639 -3.752 2.356 -4.26 2.356 -4.26 C 1.207 -6.317 -0.966 -7.596 -3.316 -7.596 C -6.896 -7.596 -9.809 -4.684 -9.809 -1.103 C -9.809 -0.913 -9.796 -0.727 -9.78 -0.541 C -9.78 -0.541 -9.709 0.292 -9.709 0.292 C -9.709 0.292 -11.177 0.292 -11.177 0.292 Z"></path></g></g><g style="display: block;" opacity="1" transform="matrix(1, 0, 0, 1, 3234.95, 0)"><g opacity="1" transform="matrix(1, 0, 0, 1, 378.566, 293.009)"><path fill="rgb(145, 168, 246)" fill-opacity="1" d="M 11.176 9.13 C 11.176 9.13 -11.177 9.13 -11.177 9.13 C -14.036 9.13 -16.363 6.803 -16.363 3.943 C -16.363 1.14 -14.127 -1.152 -11.344 -1.24 C -11.27 -5.603 -7.697 -9.13 -3.316 -9.13 C -0.597 -9.13 1.928 -7.746 3.405 -5.485 C 6.418 -5.915 9.107 -4.021 9.87 -1.242 C 9.87 -1.242 11.176 -1.242 11.176 -1.242 C 14.036 -1.242 16.363 1.084 16.363 3.943 C 16.363 6.803 14.036 9.13 11.176 9.13 Z M -11.177 0.292 C -13.191 0.292 -14.828 1.93 -14.828 3.943 C -14.828 5.957 -13.191 7.596 -11.177 7.596 C -11.177 7.596 11.176 7.596 11.176 7.596 C 13.19 7.596 14.828 5.957 14.828 3.943 C 14.828 1.93 13.19 0.292 11.176 0.292 C 11.176 0.292 8.596 0.292 8.596 0.292 C 8.596 0.292 8.493 -0.354 8.493 -0.354 C 8.105 -2.796 5.787 -4.505 3.202 -3.888 C 3.202 -3.888 2.637 -3.751 2.637 -3.751 C 2.637 -3.751 2.354 -4.259 2.354 -4.259 C 1.206 -6.316 -0.966 -7.594 -3.316 -7.594 C -6.896 -7.594 -9.81 -4.682 -9.81 -1.102 C -9.81 -0.912 -9.797 -0.726 -9.781 -0.54 C -9.781 -0.54 -9.71 0.292 -9.71 0.292 C -9.71 0.292 -11.177 0.292 -11.177 0.292 Z"></path></g></g><g style="display: block;" opacity="1" transform="matrix(1, 0, 0, 1, 1729, 0)"><g opacity="1" transform="matrix(1, 0, 0, 1, 1307.6, 90.485)"><path fill="rgb(145, 168, 246)" fill-opacity="1" d="M 11.176 9.13 C 11.176 9.13 -11.177 9.13 -11.177 9.13 C -14.036 9.13 -16.364 6.804 -16.364 3.945 C -16.364 1.14 -14.126 -1.152 -11.343 -1.24 C -11.27 -5.603 -7.698 -9.13 -3.317 -9.13 C -0.598 -9.13 1.928 -7.747 3.405 -5.485 C 6.416 -5.915 9.107 -4.02 9.87 -1.242 C 9.87 -1.242 11.176 -1.242 11.176 -1.242 C 14.036 -1.242 16.363 1.085 16.363 3.945 C 16.363 6.804 14.036 9.13 11.176 9.13 Z M -11.177 0.292 C -13.19 0.292 -14.828 1.931 -14.828 3.945 C -14.828 5.958 -13.19 7.596 -11.177 7.596 C -11.177 7.596 11.176 7.596 11.176 7.596 C 13.19 7.596 14.828 5.958 14.828 3.945 C 14.828 1.931 13.19 0.292 11.176 0.292 C 11.176 0.292 8.596 0.292 8.596 0.292 C 8.596 0.292 8.495 -0.354 8.495 -0.354 C 8.107 -2.795 5.786 -4.501 3.203 -3.886 C 3.203 -3.886 2.638 -3.751 2.638 -3.751 C 2.638 -3.751 2.355 -4.258 2.355 -4.258 C 1.207 -6.317 -0.966 -7.595 -3.317 -7.595 C -6.897 -7.595 -9.81 -4.682 -9.81 -1.102 C -9.81 -0.912 -9.797 -0.725 -9.781 -0.54 C -9.781 -0.54 -9.708 0.292 -9.708 0.292 C -9.708 0.292 -11.177 0.292 -11.177 0.292 Z"></path></g></g><g style="display: block;" opacity="1" transform="matrix(1, 0, 0, 1, 1729, 0)"><g opacity="1" transform="matrix(1, 0, 0, 1, 1577.02, 194.431)"><path fill="rgb(145, 168, 246)" fill-opacity="1" d="M 11.176 9.13 C 11.176 9.13 -11.177 9.13 -11.177 9.13 C -14.036 9.13 -16.364 6.804 -16.364 3.945 C -16.364 1.141 -14.126 -1.152 -11.343 -1.24 C -11.27 -5.603 -7.698 -9.13 -3.317 -9.13 C -0.599 -9.13 1.928 -7.747 3.405 -5.485 C 6.416 -5.915 9.106 -4.02 9.87 -1.242 C 9.87 -1.242 11.176 -1.242 11.176 -1.242 C 14.036 -1.242 16.363 1.085 16.363 3.945 C 16.363 6.804 14.036 9.13 11.176 9.13 Z M -11.177 0.292 C -13.191 0.292 -14.828 1.932 -14.828 3.945 C -14.828 5.959 -13.191 7.596 -11.177 7.596 C -11.177 7.596 11.176 7.596 11.176 7.596 C 13.19 7.596 14.828 5.959 14.828 3.945 C 14.828 1.932 13.19 0.292 11.176 0.292 C 11.176 0.292 8.596 0.292 8.596 0.292 C 8.596 0.292 8.495 -0.354 8.495 -0.354 C 8.106 -2.796 5.786 -4.501 3.203 -3.886 C 3.203 -3.886 2.637 -3.751 2.637 -3.751 C 2.637 -3.751 2.354 -4.258 2.354 -4.258 C 1.206 -6.317 -0.967 -7.595 -3.317 -7.595 C -6.898 -7.595 -9.81 -4.682 -9.81 -1.102 C -9.81 -0.912 -9.796 -0.725 -9.781 -0.54 C -9.781 -0.54 -9.708 0.292 -9.708 0.292 C -9.708 0.292 -11.177 0.292 -11.177 0.292 Z"></path></g></g><g style="display: block;" opacity="1" transform="matrix(1, 0, 0, 1, 1729, 0)"><g opacity="1" transform="matrix(1, 0, 0, 1, 665.92, 57.436)"><path fill="rgb(145, 168, 246)" fill-opacity="1" d="M 11.176 9.13 C 11.176 9.13 -11.177 9.13 -11.177 9.13 C -14.036 9.13 -16.364 6.804 -16.364 3.945 C -16.364 1.14 -14.127 -1.152 -11.344 -1.24 C -11.27 -5.603 -7.698 -9.13 -3.317 -9.13 C -0.599 -9.13 1.928 -7.747 3.405 -5.485 C 6.415 -5.915 9.107 -4.02 9.87 -1.242 C 9.87 -1.242 11.176 -1.242 11.176 -1.242 C 14.036 -1.242 16.363 1.085 16.363 3.945 C 16.363 6.804 14.036 9.13 11.176 9.13 Z M -11.177 0.292 C -13.191 0.292 -14.828 1.931 -14.828 3.945 C -14.828 5.958 -13.191 7.596 -11.177 7.596 C -11.177 7.596 11.176 7.596 11.176 7.596 C 13.19 7.596 14.828 5.958 14.828 3.945 C 14.828 1.931 13.19 0.292 11.176 0.292 C 11.176 0.292 8.596 0.292 8.596 0.292 C 8.596 0.292 8.493 -0.354 8.493 -0.354 C 8.106 -2.796 5.785 -4.501 3.203 -3.886 C 3.203 -3.886 2.637 -3.751 2.637 -3.751 C 2.637 -3.751 2.354 -4.258 2.354 -4.258 C 1.206 -6.317 -0.967 -7.595 -3.317 -7.595 C -6.898 -7.595 -9.81 -4.682 -9.81 -1.102 C -9.81 -0.912 -9.796 -0.725 -9.781 -0.54 C -9.781 -0.54 -9.71 0.292 -9.71 0.292 C -9.71 0.292 -11.177 0.292 -11.177 0.292 Z"></path></g></g><g style="display: block;" opacity="1" transform="matrix(1, 0, 0, 1, 1729, 0)"><g opacity="1" transform="matrix(1, 0, 0, 1, 185.977, 715.955)"><path fill="rgb(145, 168, 246)" fill-opacity="1" d="M 11.178 9.13 C 11.178 9.13 -11.176 9.13 -11.176 9.13 C -14.036 9.13 -16.363 6.803 -16.363 3.943 C -16.363 1.14 -14.125 -1.152 -11.342 -1.24 C -11.268 -5.604 -7.696 -9.13 -3.315 -9.13 C -0.597 -9.13 1.93 -7.746 3.406 -5.485 C 6.42 -5.916 9.108 -4.021 9.871 -1.242 C 9.871 -1.242 11.178 -1.242 11.178 -1.242 C 14.038 -1.242 16.364 1.084 16.364 3.943 C 16.364 6.803 14.038 9.13 11.178 9.13 Z M -11.176 0.292 C -13.19 0.292 -14.828 1.93 -14.828 3.943 C -14.828 5.957 -13.19 7.596 -11.176 7.596 C -11.176 7.596 11.178 7.596 11.178 7.596 C 13.191 7.596 14.829 5.957 14.829 3.943 C 14.829 1.93 13.191 0.292 11.178 0.292 C 11.178 0.292 8.598 0.292 8.598 0.292 C 8.598 0.292 8.495 -0.354 8.495 -0.354 C 8.107 -2.796 5.789 -4.504 3.204 -3.887 C 3.204 -3.887 2.639 -3.753 2.639 -3.753 C 2.639 -3.753 2.356 -4.259 2.356 -4.259 C 1.208 -6.316 -0.965 -7.595 -3.315 -7.595 C -6.896 -7.595 -9.808 -4.684 -9.808 -1.104 C -9.808 -0.913 -9.796 -0.726 -9.78 -0.54 C -9.78 -0.54 -9.708 0.292 -9.708 0.292 C -9.708 0.292 -11.176 0.292 -11.176 0.292 Z"></path></g></g><g style="display: block;" opacity="1" transform="matrix(1, 0, 0, 1, 1729, 0)"><g opacity="1" transform="matrix(1, 0, 0, 1, 925.332, 131.381)"><path fill="rgb(145, 168, 246)" fill-opacity="1" d="M 11.176 9.13 C 11.176 9.13 -11.177 9.13 -11.177 9.13 C -14.037 9.13 -16.364 6.804 -16.364 3.944 C -16.364 1.14 -14.127 -1.151 -11.344 -1.239 C -11.27 -5.602 -7.698 -9.13 -3.318 -9.13 C -0.599 -9.13 1.928 -7.747 3.405 -5.485 C 6.415 -5.915 9.107 -4.021 9.87 -1.242 C 9.87 -1.242 11.176 -1.242 11.176 -1.242 C 14.035 -1.242 16.363 1.085 16.363 3.944 C 16.363 6.804 14.035 9.13 11.176 9.13 Z M -11.177 0.293 C -13.191 0.293 -14.828 1.931 -14.828 3.944 C -14.828 5.958 -13.191 7.596 -11.177 7.596 C -11.177 7.596 11.176 7.596 11.176 7.596 C 13.19 7.596 14.827 5.958 14.827 3.944 C 14.827 1.931 13.19 0.293 11.176 0.293 C 11.176 0.293 8.596 0.293 8.596 0.293 C 8.596 0.293 8.493 -0.354 8.493 -0.354 C 8.106 -2.796 5.785 -4.501 3.202 -3.887 C 3.202 -3.887 2.637 -3.752 2.637 -3.752 C 2.637 -3.752 2.355 -4.259 2.355 -4.259 C 1.206 -6.317 -0.967 -7.595 -3.318 -7.595 C -6.898 -7.595 -9.81 -4.683 -9.81 -1.102 C -9.81 -0.912 -9.797 -0.726 -9.781 -0.54 C -9.781 -0.54 -9.71 0.293 -9.71 0.293 C -9.71 0.293 -11.177 0.293 -11.177 0.293 Z"></path></g></g><g style="display: block;" opacity="1" transform="matrix(1, 0, 0, 1, 1729, 0)"><g opacity="1" transform="matrix(1, 0, 0, 1, 1307.45, 700.043)"><path fill="rgb(145, 168, 246)" fill-opacity="1" d="M 11.177 9.13 C 11.177 9.13 -11.177 9.13 -11.177 9.13 C -14.036 9.13 -16.363 6.804 -16.363 3.943 C -16.363 1.14 -14.125 -1.152 -11.342 -1.24 C -11.269 -5.603 -7.697 -9.13 -3.317 -9.13 C -0.598 -9.13 1.929 -7.747 3.406 -5.486 C 6.417 -5.916 9.107 -4.021 9.87 -1.242 C 9.87 -1.242 11.177 -1.242 11.177 -1.242 C 14.037 -1.242 16.363 1.084 16.363 3.943 C 16.363 6.804 14.037 9.13 11.177 9.13 Z M -11.177 0.292 C -13.191 0.292 -14.828 1.931 -14.828 3.943 C -14.828 5.957 -13.191 7.595 -11.177 7.595 C -11.177 7.595 11.177 7.595 11.177 7.595 C 13.191 7.595 14.829 5.957 14.829 3.943 C 14.829 1.931 13.191 0.292 11.177 0.292 C 11.177 0.292 8.597 0.292 8.597 0.292 C 8.597 0.292 8.495 -0.354 8.495 -0.354 C 8.106 -2.797 5.787 -4.502 3.204 -3.888 C 3.204 -3.888 2.638 -3.752 2.638 -3.752 C 2.638 -3.752 2.355 -4.26 2.355 -4.26 C 1.207 -6.317 -0.966 -7.596 -3.317 -7.596 C -6.897 -7.596 -9.809 -4.684 -9.809 -1.103 C -9.809 -0.913 -9.796 -0.727 -9.781 -0.541 C -9.781 -0.541 -9.709 0.292 -9.709 0.292 C -9.709 0.292 -11.177 0.292 -11.177 0.292 Z"></path></g></g><g style="display: block;" opacity="1" transform="matrix(1, 0, 0, 1, 1729, 0)"><g opacity="1" transform="matrix(1, 0, 0, 1, 1708.45, 429.043)"><path fill="rgb(145, 168, 246)" fill-opacity="1" d="M 11.177 9.13 C 11.177 9.13 -11.177 9.13 -11.177 9.13 C -14.036 9.13 -16.363 6.804 -16.363 3.943 C -16.363 1.14 -14.125 -1.152 -11.342 -1.24 C -11.269 -5.603 -7.697 -9.13 -3.317 -9.13 C -0.598 -9.13 1.929 -7.748 3.406 -5.486 C 6.417 -5.916 9.107 -4.021 9.87 -1.242 C 9.87 -1.242 11.177 -1.242 11.177 -1.242 C 14.037 -1.242 16.363 1.084 16.363 3.943 C 16.363 6.804 14.037 9.13 11.177 9.13 Z M -11.177 0.292 C -13.191 0.292 -14.828 1.931 -14.828 3.943 C -14.828 5.957 -13.191 7.595 -11.177 7.595 C -11.177 7.595 11.177 7.595 11.177 7.595 C 13.191 7.595 14.829 5.957 14.829 3.943 C 14.829 1.931 13.191 0.292 11.177 0.292 C 11.177 0.292 8.597 0.292 8.597 0.292 C 8.597 0.292 8.495 -0.354 8.495 -0.354 C 8.106 -2.797 5.787 -4.502 3.204 -3.888 C 3.204 -3.888 2.638 -3.752 2.638 -3.752 C 2.638 -3.752 2.355 -4.259 2.355 -4.259 C 1.207 -6.318 -0.966 -7.596 -3.317 -7.596 C -6.897 -7.596 -9.809 -4.683 -9.809 -1.103 C -9.809 -0.913 -9.796 -0.727 -9.781 -0.541 C -9.781 -0.541 -9.709 0.292 -9.709 0.292 C -9.709 0.292 -11.177 0.292 -11.177 0.292 Z"></path></g></g><g style="display: block;" opacity="1" transform="matrix(1, 0, 0, 1, 1729, 0)"><g opacity="1" transform="matrix(1, 0, 0, 1, 699.447, 644.043)"><path fill="rgb(145, 168, 246)" fill-opacity="1" d="M 11.177 9.13 C 11.177 9.13 -11.177 9.13 -11.177 9.13 C -14.036 9.13 -16.363 6.804 -16.363 3.943 C -16.363 1.14 -14.126 -1.152 -11.343 -1.24 C -11.269 -5.603 -7.697 -9.13 -3.316 -9.13 C -0.597 -9.13 1.929 -7.747 3.406 -5.486 C 6.416 -5.916 9.107 -4.021 9.87 -1.242 C 9.87 -1.242 11.177 -1.242 11.177 -1.242 C 14.037 -1.242 16.364 1.084 16.364 3.943 C 16.364 6.804 14.037 9.13 11.177 9.13 Z M -11.177 0.292 C -13.19 0.292 -14.828 1.931 -14.828 3.943 C -14.828 5.957 -13.19 7.595 -11.177 7.595 C -11.177 7.595 11.177 7.595 11.177 7.595 C 13.191 7.595 14.829 5.957 14.829 3.943 C 14.829 1.931 13.191 0.292 11.177 0.292 C 11.177 0.292 8.597 0.292 8.597 0.292 C 8.597 0.292 8.495 -0.354 8.495 -0.354 C 8.107 -2.797 5.786 -4.502 3.204 -3.888 C 3.204 -3.888 2.639 -3.752 2.639 -3.752 C 2.639 -3.752 2.356 -4.26 2.356 -4.26 C 1.207 -6.317 -0.966 -7.596 -3.316 -7.596 C -6.896 -7.596 -9.809 -4.684 -9.809 -1.103 C -9.809 -0.913 -9.796 -0.727 -9.78 -0.541 C -9.78 -0.541 -9.709 0.292 -9.709 0.292 C -9.709 0.292 -11.177 0.292 -11.177 0.292 Z"></path></g></g><g style="display: block;" opacity="1" transform="matrix(1, 0, 0, 1, 0, 0)"><g opacity="1" transform="matrix(1, 0, 0, 1, 1453.96, 616.749)"><path fill="rgb(145, 168, 246)" fill-opacity="1" d="M 0.333 -9.445 C 0.333 -9.445 1.708 0.366 -9.752 0.139 C -9.752 0.139 0.092 0.24 -0.167 9.445 C -0.167 9.445 0.719 2.203 9.751 0.585 C 9.751 0.585 2.118 2.336 0.333 -9.445 Z"></path></g></g><g style="display: block;" opacity="0.615336" transform="matrix(1, 0, 0, 1, 0, 0)"><g opacity="1" transform="matrix(1, 0, 0, 1, 1550.87, 807.636)"><path fill="rgb(145, 168, 246)" fill-opacity="1" d="M 0.333 -9.445 C 0.333 -9.445 1.707 0.366 -9.752 0.139 C -9.752 0.139 0.092 0.24 -0.167 9.445 C -0.167 9.445 0.718 2.203 9.751 0.585 C 9.751 0.585 2.119 2.336 0.333 -9.445 Z"></path></g></g><g style="display: block;" opacity="0.874554" transform="matrix(1, 0, 0, 1, 0, 0)"><g opacity="1" transform="matrix(1, 0, 0, 1, 1114.82, 674.953)"><path fill="rgb(145, 168, 246)" fill-opacity="1" d="M 0 -2.175 C -0.557 -2.175 -1.008 -1.724 -1.008 -1.168 C -1.008 -1.168 -1.008 1.168 -1.008 1.168 C -1.008 1.724 -0.557 2.175 0 2.175 C 0.556 2.175 1.007 1.724 1.007 1.168 C 1.007 1.168 1.007 -1.168 1.007 -1.168 C 1.007 -1.724 0.556 -2.175 0 -2.175 Z"></path></g><g opacity="1" transform="matrix(1, 0, 0, 1, 1111.02, 671.442)"><path fill="rgb(145, 168, 246)" fill-opacity="1" d="M 1.169 -1.008 C 1.169 -1.008 -1.168 -1.008 -1.168 -1.008 C -1.724 -1.008 -2.176 -0.556 -2.176 0 C -2.176 0.556 -1.724 1.008 -1.168 1.008 C -1.168 1.008 1.169 1.008 1.169 1.008 C 1.725 1.008 2.176 0.556 2.176 0 C 2.176 -0.556 1.725 -1.008 1.169 -1.008 Z"></path></g><g opacity="1" transform="matrix(1, 0, 0, 1, 1114.82, 667.77)"><path fill="rgb(145, 168, 246)" fill-opacity="1" d="M 0 -2.175 C -0.557 -2.175 -1.008 -1.724 -1.008 -1.168 C -1.008 -1.168 -1.008 1.167 -1.008 1.167 C -1.008 1.723 -0.557 2.175 0 2.175 C 0.556 2.175 1.007 1.723 1.007 1.167 C 1.007 1.167 1.007 -1.168 1.007 -1.168 C 1.007 -1.724 0.556 -2.175 0 -2.175 Z"></path></g><g opacity="1" transform="matrix(1, 0, 0, 1, 1118.62, 671.281)"><path fill="rgb(145, 168, 246)" fill-opacity="1" d="M 1.168 -1.007 C 1.168 -1.007 -1.168 -1.007 -1.168 -1.007 C -1.725 -1.007 -2.176 -0.556 -2.176 0 C -2.176 0.556 -1.725 1.007 -1.168 1.007 C -1.168 1.007 1.168 1.007 1.168 1.007 C 1.725 1.007 2.176 0.556 2.176 0 C 2.176 -0.556 1.725 -1.007 1.168 -1.007 Z"></path></g></g><g style="display: block;" opacity="1" transform="matrix(1, 0, 0, 1, 0, 0)"><g opacity="1" transform="matrix(1, 0, 0, 1, 535.759, 166.305)"><path fill="rgb(145, 168, 246)" fill-opacity="1" d="M 0.333 -9.445 C 0.333 -9.445 1.708 0.365 -9.751 0.138 C -9.751 0.138 0.092 0.239 -0.167 9.445 C -0.167 9.445 0.719 2.203 9.751 0.585 C 9.751 0.585 2.119 2.336 0.333 -9.445 Z"></path></g><g opacity="1" transform="matrix(1, 0, 0, 1, 96.407, 367.008)"><path fill="rgb(145, 168, 246)" fill-opacity="1" d="M 0 -2.175 C -0.556 -2.175 -1.007 -1.724 -1.007 -1.168 C -1.007 -1.168 -1.007 1.168 -1.007 1.168 C -1.007 1.724 -0.556 2.175 0 2.175 C 0.556 2.175 1.007 1.724 1.007 1.168 C 1.007 1.168 1.007 -1.168 1.007 -1.168 C 1.007 -1.724 0.556 -2.175 0 -2.175 Z"></path></g><g opacity="1" transform="matrix(1, 0, 0, 1, 92.603, 363.496)"><path fill="rgb(145, 168, 246)" fill-opacity="1" d="M 1.169 -1.007 C 1.169 -1.007 -1.169 -1.007 -1.169 -1.007 C -1.725 -1.007 -2.176 -0.556 -2.176 0 C -2.176 0.556 -1.725 1.007 -1.169 1.007 C -1.169 1.007 1.169 1.007 1.169 1.007 C 1.725 1.007 2.176 0.556 2.176 0 C 2.176 -0.556 1.725 -1.007 1.169 -1.007 Z"></path></g><g opacity="1" transform="matrix(1, 0, 0, 1, 96.407, 359.824)"><path fill="rgb(145, 168, 246)" fill-opacity="1" d="M 0 -2.174 C -0.556 -2.174 -1.007 -1.723 -1.007 -1.167 C -1.007 -1.167 -1.007 1.168 -1.007 1.168 C -1.007 1.724 -0.556 2.175 0 2.175 C 0.556 2.175 1.007 1.724 1.007 1.168 C 1.007 1.168 1.007 -1.167 1.007 -1.167 C 1.007 -1.723 0.556 -2.174 0 -2.174 Z"></path></g><g opacity="1" transform="matrix(1, 0, 0, 1, 100.211, 363.336)"><path fill="rgb(145, 168, 246)" fill-opacity="1" d="M 1.169 -1.007 C 1.169 -1.007 -1.168 -1.007 -1.168 -1.007 C -1.725 -1.007 -2.176 -0.556 -2.176 0 C -2.176 0.556 -1.725 1.007 -1.168 1.007 C -1.168 1.007 1.169 1.007 1.169 1.007 C 1.725 1.007 2.176 0.556 2.176 0 C 2.176 -0.556 1.725 -1.007 1.169 -1.007 Z"></path></g><g opacity="1" transform="matrix(1, 0, 0, 1, 583.548, 742.803)"><path fill="rgb(145, 168, 246)" fill-opacity="1" d="M 0.334 -9.445 C 0.334 -9.445 1.709 0.365 -9.751 0.139 C -9.751 0.139 0.093 0.24 -0.166 9.445 C -0.166 9.445 0.719 2.203 9.752 0.585 C 9.752 0.585 2.119 2.336 0.334 -9.445 Z"></path></g><g opacity="1" transform="matrix(1, 0, 0, 1, 1307.46, 261.691)"><path fill="rgb(145, 168, 246)" fill-opacity="1" d="M 0.333 -9.445 C 0.333 -9.445 1.707 0.365 -9.752 0.138 C -9.752 0.138 0.092 0.239 -0.167 9.445 C -0.167 9.445 0.718 2.203 9.751 0.585 C 9.751 0.585 2.118 2.336 0.333 -9.445 Z"></path></g><g opacity="1" transform="matrix(1, 0, 0, 1, 1043.46, 74.691)"><path fill="rgb(145, 168, 246)" fill-opacity="1" d="M 0.333 -9.445 C 0.333 -9.445 1.707 0.365 -9.752 0.138 C -9.752 0.138 0.092 0.239 -0.167 9.445 C -0.167 9.445 0.718 2.203 9.751 0.585 C 9.751 0.585 2.118 2.336 0.333 -9.445 Z"></path></g><g opacity="1" transform="matrix(1, 0, 0, 1, 324.347, 61.359)"><path fill="rgb(145, 168, 246)" fill-opacity="1" d="M 0.334 -9.445 C 0.334 -9.445 1.709 0.365 -9.751 0.139 C -9.751 0.139 0.093 0.24 -0.166 9.445 C -0.166 9.445 0.72 2.203 9.752 0.586 C 9.752 0.586 2.119 2.337 0.334 -9.445 Z"></path></g><g opacity="1" transform="matrix(1, 0, 0, 1, 167.416, 537.646)"><path fill="rgb(145, 168, 246)" fill-opacity="1" d="M 0.333 -9.445 C 0.333 -9.445 1.708 0.365 -9.751 0.139 C -9.751 0.139 0.092 0.24 -0.167 9.445 C -0.167 9.445 0.719 2.203 9.751 0.585 C 9.751 0.585 2.118 2.336 0.333 -9.445 Z"></path></g></g><g style="display: block;" opacity="1" transform="matrix(1, 0, 0, 1, 1342, -2)"><g opacity="1" transform="matrix(1, 0, 0, 1, 535.759, 166.305)"><path fill="rgb(145, 168, 246)" fill-opacity="1" d="M 0.333 -9.445 C 0.333 -9.445 1.708 0.365 -9.751 0.138 C -9.751 0.138 0.092 0.239 -0.167 9.445 C -0.167 9.445 0.719 2.203 9.751 0.585 C 9.751 0.585 2.119 2.336 0.333 -9.445 Z"></path></g><g opacity="1" transform="matrix(1, 0, 0, 1, 96.407, 367.008)"><path fill="rgb(145, 168, 246)" fill-opacity="1" d="M 0 -2.175 C -0.556 -2.175 -1.007 -1.724 -1.007 -1.168 C -1.007 -1.168 -1.007 1.168 -1.007 1.168 C -1.007 1.724 -0.556 2.175 0 2.175 C 0.556 2.175 1.007 1.724 1.007 1.168 C 1.007 1.168 1.007 -1.168 1.007 -1.168 C 1.007 -1.724 0.556 -2.175 0 -2.175 Z"></path></g><g opacity="1" transform="matrix(1, 0, 0, 1, 92.603, 363.496)"><path fill="rgb(145, 168, 246)" fill-opacity="1" d="M 1.169 -1.007 C 1.169 -1.007 -1.169 -1.007 -1.169 -1.007 C -1.725 -1.007 -2.176 -0.556 -2.176 0 C -2.176 0.556 -1.725 1.007 -1.169 1.007 C -1.169 1.007 1.169 1.007 1.169 1.007 C 1.725 1.007 2.176 0.556 2.176 0 C 2.176 -0.556 1.725 -1.007 1.169 -1.007 Z"></path></g><g opacity="1" transform="matrix(1, 0, 0, 1, 96.407, 359.824)"><path fill="rgb(145, 168, 246)" fill-opacity="1" d="M 0 -2.174 C -0.556 -2.174 -1.007 -1.723 -1.007 -1.167 C -1.007 -1.167 -1.007 1.168 -1.007 1.168 C -1.007 1.724 -0.556 2.175 0 2.175 C 0.556 2.175 1.007 1.724 1.007 1.168 C 1.007 1.168 1.007 -1.167 1.007 -1.167 C 1.007 -1.723 0.556 -2.174 0 -2.174 Z"></path></g><g opacity="1" transform="matrix(1, 0, 0, 1, 100.211, 363.336)"><path fill="rgb(145, 168, 246)" fill-opacity="1" d="M 1.169 -1.007 C 1.169 -1.007 -1.168 -1.007 -1.168 -1.007 C -1.725 -1.007 -2.176 -0.556 -2.176 0 C -2.176 0.556 -1.725 1.007 -1.168 1.007 C -1.168 1.007 1.169 1.007 1.169 1.007 C 1.725 1.007 2.176 0.556 2.176 0 C 2.176 -0.556 1.725 -1.007 1.169 -1.007 Z"></path></g><g opacity="1" transform="matrix(1, 0, 0, 1, 583.548, 742.803)"><path fill="rgb(145, 168, 246)" fill-opacity="1" d="M 0.334 -9.445 C 0.334 -9.445 1.709 0.365 -9.751 0.139 C -9.751 0.139 0.093 0.24 -0.166 9.445 C -0.166 9.445 0.719 2.203 9.752 0.585 C 9.752 0.585 2.119 2.336 0.334 -9.445 Z"></path></g><g opacity="1" transform="matrix(1, 0, 0, 1, 1307.46, 261.691)"><path fill="rgb(145, 168, 246)" fill-opacity="1" d="M 0.333 -9.445 C 0.333 -9.445 1.707 0.365 -9.752 0.138 C -9.752 0.138 0.092 0.239 -0.167 9.445 C -0.167 9.445 0.718 2.203 9.751 0.585 C 9.751 0.585 2.118 2.336 0.333 -9.445 Z"></path></g><g opacity="1" transform="matrix(1, 0, 0, 1, 1043.46, 74.691)"><path fill="rgb(145, 168, 246)" fill-opacity="1" d="M 0.333 -9.445 C 0.333 -9.445 1.707 0.365 -9.752 0.138 C -9.752 0.138 0.092 0.239 -0.167 9.445 C -0.167 9.445 0.718 2.203 9.751 0.585 C 9.751 0.585 2.118 2.336 0.333 -9.445 Z"></path></g><g opacity="1" transform="matrix(1, 0, 0, 1, 324.347, 61.359)"><path fill="rgb(145, 168, 246)" fill-opacity="1" d="M 0.334 -9.445 C 0.334 -9.445 1.709 0.365 -9.751 0.139 C -9.751 0.139 0.093 0.24 -0.166 9.445 C -0.166 9.445 0.72 2.203 9.752 0.586 C 9.752 0.586 2.119 2.337 0.334 -9.445 Z"></path></g><g opacity="1" transform="matrix(1, 0, 0, 1, 167.416, 537.646)"><path fill="rgb(145, 168, 246)" fill-opacity="1" d="M 0.333 -9.445 C 0.333 -9.445 1.708 0.365 -9.751 0.139 C -9.751 0.139 0.092 0.24 -0.167 9.445 C -0.167 9.445 0.719 2.203 9.751 0.585 C 9.751 0.585 2.118 2.336 0.333 -9.445 Z"></path></g></g><g style="display: block;" opacity="0.615336" transform="matrix(1, 0, 0, 1, 0, 0)"><g opacity="1" transform="matrix(1, 0, 0, 1, 333.828, 807.591)"><path fill="rgb(145, 168, 246)" fill-opacity="1" d="M 0.334 -9.445 C 0.334 -9.445 1.709 0.366 -9.751 0.139 C -9.751 0.139 0.093 0.24 -0.166 9.445 C -0.166 9.445 0.72 2.203 9.752 0.585 C 9.752 0.585 2.119 2.336 0.334 -9.445 Z"></path></g></g><g style="display: block;" opacity="0.615336" transform="matrix(1, 0, 0, 1, 0, -160)"><g opacity="1" transform="matrix(1, 0, 0, 1, 333.828, 807.591)"><path fill="rgb(145, 168, 246)" fill-opacity="1" d="M 0.334 -9.445 C 0.334 -9.445 1.709 0.366 -9.751 0.139 C -9.751 0.139 0.093 0.24 -0.166 9.445 C -0.166 9.445 0.72 2.203 9.752 0.585 C 9.752 0.585 2.119 2.336 0.334 -9.445 Z"></path></g></g></g></svg>