<?xml version="1.0" encoding="utf-8"?>
<!-- Generator: Adobe Illustrator 24.0.1, SVG Export Plug-In . SVG Version: 6.00 Build 0)  -->
<svg version="1.1" id="Layer_1" xmlns="http://www.w3.org/2000/svg" xmlns:xlink="http://www.w3.org/1999/xlink" x="0px" y="0px"
	 viewBox="0 0 1851 848" style="enable-background:new 0 0 1851 848;" xml:space="preserve">
<style type="text/css">
	.st0{fill:#FFFFFF;}
	.st1{fill:#91A8F6;}
	.st2{display:none;fill:#472EBF;enable-background:new    ;}
	.st3{font-family:'andromeda';}
	.st4{font-size:51.9916px;}
	.st5{display:none;fill:none;stroke:#472EBF;stroke-width:2;stroke-miterlimit:10;enable-background:new    ;}
	.st6{display:none;}
	.st7{display:inline;}
	.st8{fill:#1C0C93;}
	.st9{font-size:112.7407px;}
	.st10{fill:none;stroke:#1C0C93;stroke-miterlimit:10;}
	.st11{display:inline;fill:#1C0C93;}
	.st12{font-size:92.2216px;}
	.st13{font-size:15px;}
	.st14{letter-spacing:-8;}
</style>
<g id="Layer_1_1_">
	<rect x="-0.2" y="-1" class="st0" width="1851" height="849"/>
	<g>
		<path class="st1" d="M1751.8,56.9h-23c-0.6,0-1,0.5-1,1c0,0.6,0.5,1,1,1h23c0.6,0,1-0.5,1-1C1752.9,57.4,1752.4,56.9,1751.8,56.9z
			"/>
		<path class="st1" d="M1721.5,56.9h-4.5c-0.6,0-1,0.5-1,1c0,0.6,0.5,1,1,1h4.5c0.6,0,1-0.5,1-1S1722.1,56.9,1721.5,56.9z"/>
		<path class="st1" d="M1741,65c0,0.6-0.5,1-1,1h-2.9c-0.6,0-1-0.5-1-1c0-0.6,0.5-1,1-1h2.9C1740.6,64,1741,64.4,1741,65z
			 M1733.1,65c0,0.6-0.5,1-1,1h-5c-0.6,0-1-0.5-1-1c0-0.6,0.5-1,1-1h5C1732.7,64,1733.1,64.4,1733.1,65z M1723,65c0,0.6-0.5,1-1,1
			h-5c-0.6,0-1-0.5-1-1c0-0.6,0.5-1,1-1h5C1722.6,64,1723,64.4,1723,65z"/>
	</g>
	<g>
		<path class="st1" d="M1461.8,371.9h-23c-0.6,0-1,0.5-1,1c0,0.6,0.5,1,1,1h23c0.6,0,1-0.5,1-1
			C1462.9,372.4,1462.4,371.9,1461.8,371.9z"/>
		<path class="st1" d="M1431.5,371.9h-4.5c-0.6,0-1,0.5-1,1c0,0.6,0.5,1,1,1h4.5c0.6,0,1-0.5,1-1S1432.1,371.9,1431.5,371.9z"/>
		<path class="st1" d="M1451,380c0,0.6-0.5,1-1,1h-2.9c-0.6,0-1-0.5-1-1c0-0.6,0.5-1,1-1h2.9C1450.6,379,1451,379.4,1451,380z
			 M1443.1,380c0,0.6-0.5,1-1,1h-5c-0.6,0-1-0.5-1-1c0-0.6,0.5-1,1-1h5C1442.7,379,1443.1,379.4,1443.1,380z M1433,380
			c0,0.6-0.5,1-1,1h-5c-0.6,0-1-0.5-1-1c0-0.6,0.5-1,1-1h5C1432.6,379,1433,379.4,1433,380z"/>
	</g>
	<g>
		<path class="st1" d="M1733.8,699.9h-23c-0.6,0-1,0.5-1,1c0,0.6,0.5,1,1,1h23c0.6,0,1-0.5,1-1
			C1734.9,700.4,1734.4,699.9,1733.8,699.9z"/>
		<path class="st1" d="M1703.5,699.9h-4.5c-0.6,0-1,0.5-1,1c0,0.6,0.5,1,1,1h4.5c0.6,0,1-0.5,1-1S1704.1,699.9,1703.5,699.9z"/>
		<path class="st1" d="M1723,708c0,0.6-0.5,1-1,1h-2.9c-0.6,0-1-0.5-1-1c0-0.6,0.5-1,1-1h2.9C1722.6,707,1723,707.4,1723,708z
			 M1715.1,708c0,0.6-0.5,1-1,1h-5c-0.6,0-1-0.5-1-1c0-0.6,0.5-1,1-1h5C1714.7,707,1715.1,707.4,1715.1,708z M1705,708
			c0,0.6-0.5,1-1,1h-5c-0.6,0-1-0.5-1-1c0-0.6,0.5-1,1-1h5C1704.6,707,1705,707.4,1705,708z"/>
	</g>
	<g>
		<path class="st1" d="M96.4,364.8c-0.6,0-1,0.5-1,1v2.3c0,0.6,0.5,1,1,1c0.6,0,1-0.5,1-1v-2.3C97.4,365.3,97,364.8,96.4,364.8z"/>
		<path class="st1" d="M93.8,362.5h-2.3c-0.6,0-1,0.5-1,1c0,0.6,0.5,1,1,1h2.3c0.6,0,1-0.5,1-1C94.8,362.9,94.3,362.5,93.8,362.5z"
			/>
		<path class="st1" d="M96.4,357.6c-0.6,0-1,0.5-1,1v2.3c0,0.6,0.5,1,1,1c0.6,0,1-0.5,1-1v-2.3C97.4,358.1,97,357.6,96.4,357.6z"/>
		<path class="st1" d="M101.4,362.3H99c-0.6,0-1,0.5-1,1c0,0.6,0.5,1,1,1h2.3c0.6,0,1-0.5,1-1C102.4,362.8,101.9,362.3,101.4,362.3z
			"/>
	</g>
	<g>
		<path class="st1" d="M107.5,117.3h-23c-0.6,0-1,0.5-1,1c0,0.6,0.5,1,1,1h23c0.6,0,1-0.5,1-1C108.5,117.7,108,117.3,107.5,117.3z"
			/>
		<path class="st1" d="M77.1,117.3h-4.5c-0.6,0-1,0.5-1,1c0,0.6,0.5,1,1,1h4.5c0.6,0,1-0.5,1-1C78.1,117.7,77.7,117.3,77.1,117.3z"
			/>
		<path class="st1" d="M96.6,125.3c0,0.6-0.5,1-1,1h-2.9c-0.6,0-1-0.5-1-1c0-0.6,0.5-1,1-1h2.9C96.2,124.3,96.6,124.7,96.6,125.3z
			 M88.7,125.3c0,0.6-0.5,1-1,1h-5c-0.6,0-1-0.5-1-1c0-0.6,0.5-1,1-1h5C88.3,124.3,88.7,124.7,88.7,125.3z M78.7,125.3
			c0,0.6-0.5,1-1,1h-5c-0.6,0-1-0.5-1-1c0-0.6,0.5-1,1-1h5C78.2,124.3,78.7,124.7,78.7,125.3z"/>
	</g>
	<path class="st1" d="M583.9,733.4c0,0,1.4,9.8-10.1,9.6c0,0,9.8,0.1,9.6,9.3c0,0,0.9-7.2,9.9-8.9
		C593.3,743.4,585.7,745.1,583.9,733.4z"/>
	<path class="st1" d="M1307.8,252.2c0,0,1.4,9.8-10.1,9.6c0,0,9.8,0.1,9.6,9.3c0,0,0.9-7.2,9.9-8.9
		C1317.2,262.3,1309.6,264,1307.8,252.2z"/>
	<path class="st1" d="M1043.8,65.2c0,0,1.4,9.8-10.1,9.6c0,0,9.8,0.1,9.6,9.3c0,0,0.9-7.2,9.9-8.9
		C1053.2,75.3,1045.6,77,1043.8,65.2z"/>
	<path class="st1" d="M324.7,51.9c0,0,1.4,9.8-10.1,9.6c0,0,9.8,0.1,9.6,9.3c0,0,0.9-7.2,9.9-8.9C334.1,61.9,326.5,63.7,324.7,51.9z
		"/>
	<path class="st1" d="M167.7,528.2c0,0,1.4,9.8-10.1,9.6c0,0,9.8,0.1,9.6,9.3c0,0,0.9-7.2,9.9-8.9
		C177.2,538.2,169.5,540,167.7,528.2z"/>
	<g>
		<path class="st1" d="M1010.3,715.9h-23c-0.6,0-1,0.5-1,1c0,0.6,0.5,1,1,1h23c0.6,0,1-0.5,1-1
			C1011.3,716.3,1010.8,715.9,1010.3,715.9z"/>
		<path class="st1" d="M979.9,715.9h-4.5c-0.6,0-1,0.5-1,1c0,0.6,0.5,1,1,1h4.5c0.6,0,1-0.5,1-1
			C980.9,716.3,980.5,715.9,979.9,715.9z"/>
		<path class="st1" d="M999.4,723.9c0,0.6-0.5,1-1,1h-2.9c-0.6,0-1-0.5-1-1c0-0.6,0.5-1,1-1h2.9C999,722.9,999.4,723.4,999.4,723.9z
			 M991.5,723.9c0,0.6-0.5,1-1,1h-5c-0.6,0-1-0.5-1-1c0-0.6,0.5-1,1-1h5C991.1,722.9,991.5,723.4,991.5,723.9z M981.5,723.9
			c0,0.6-0.5,1-1,1h-5c-0.6,0-1-0.5-1-1c0-0.6,0.5-1,1-1h5C981,722.9,981.5,723.4,981.5,723.9z"/>
	</g>
	<g>
		<path class="st1" d="M1114.8,672.8c-0.6,0-1,0.5-1,1v2.3c0,0.6,0.5,1,1,1c0.6,0,1-0.5,1-1v-2.3
			C1115.8,673.2,1115.4,672.8,1114.8,672.8z"/>
		<path class="st1" d="M1112.2,670.4h-2.3c-0.6,0-1,0.5-1,1c0,0.6,0.5,1,1,1h2.3c0.6,0,1-0.5,1-1S1112.7,670.4,1112.2,670.4z"/>
		<path class="st1" d="M1114.8,665.6c-0.6,0-1,0.5-1,1v2.3c0,0.6,0.5,1,1,1c0.6,0,1-0.5,1-1v-2.3
			C1115.8,666,1115.4,665.6,1114.8,665.6z"/>
		<path class="st1" d="M1119.8,670.3h-2.3c-0.6,0-1,0.5-1,1c0,0.6,0.5,1,1,1h2.3c0.6,0,1-0.5,1-1
			C1120.8,670.7,1120.3,670.3,1119.8,670.3z"/>
	</g>
	<g>
		<path class="st1" d="M441.9,523.2h-23c-0.6,0-1,0.5-1,1c0,0.6,0.5,1,1,1h23c0.6,0,1-0.5,1-1S442.4,523.2,441.9,523.2z"/>
		<path class="st1" d="M411.5,523.2H407c-0.6,0-1,0.5-1,1c0,0.6,0.5,1,1,1h4.5c0.6,0,1-0.5,1-1S412.1,523.2,411.5,523.2z"/>
		<path class="st1" d="M431.1,531.2c0,0.6-0.5,1-1,1h-2.9c-0.6,0-1-0.5-1-1c0-0.6,0.5-1,1-1h2.9
			C430.6,530.2,431.1,530.7,431.1,531.2z M423.1,531.2c0,0.6-0.5,1-1,1h-5c-0.6,0-1-0.5-1-1c0-0.6,0.5-1,1-1h5
			C422.7,530.2,423.1,530.7,423.1,531.2z M413.1,531.2c0,0.6-0.5,1-1,1h-5c-0.6,0-1-0.5-1-1c0-0.6,0.5-1,1-1h5
			C412.6,530.2,413.1,530.7,413.1,531.2z"/>
	</g>
	<path class="st1" d="M1454.3,607.3c0,0,1.4,9.8-10.1,9.6c0,0,9.8,0.1,9.6,9.3c0,0,0.9-7.2,9.9-8.9
		C1463.7,617.3,1456.1,619.1,1454.3,607.3z"/>
	<path class="st1" d="M1551.2,798.2c0,0,1.4,9.8-10.1,9.6c0,0,9.8,0.1,9.6,9.3c0,0,0.9-7.2,9.9-8.9
		C1560.6,808.2,1553,810,1551.2,798.2z"/>
	<path class="st1" d="M536.1,156.9c0,0,1.4,9.8-10.1,9.6c0,0,9.8,0.1,9.6,9.3c0,0,0.9-7.2,9.9-8.9
		C545.5,166.9,537.9,168.6,536.1,156.9z"/>
	<path class="st1" d="M334.2,798.1c0,0,1.4,9.8-10.1,9.6c0,0,9.8,0.1,9.6,9.3c0,0,0.9-7.2,9.9-8.9
		C343.6,808.2,335.9,809.9,334.2,798.1z"/>
	<g>
		<path class="st1" d="M936.5,140.5h-22.4c-2.9,0-5.2-2.3-5.2-5.2c0-2.8,2.2-5.1,5-5.2c0.1-4.4,3.6-7.9,8-7.9c2.7,0,5.2,1.4,6.7,3.6
			c3-0.4,5.7,1.5,6.5,4.2h1.3c2.9,0,5.2,2.3,5.2,5.2C941.7,138.2,939.4,140.5,936.5,140.5z M914.2,131.7c-2,0-3.7,1.6-3.7,3.7
			s1.6,3.7,3.7,3.7h22.4c2,0,3.7-1.6,3.7-3.7s-1.6-3.7-3.7-3.7H934l-0.1-0.6c-0.4-2.4-2.7-4.1-5.3-3.5l-0.6,0.1l-0.3-0.5
			c-1.1-2.1-3.3-3.3-5.7-3.3c-3.6,0-6.5,2.9-6.5,6.5c0,0.2,0,0.4,0,0.6l0.1,0.8h-1.4V131.7z"/>
	</g>
	<g>
		<path class="st1" d="M1588.2,203.6h-22.4c-2.9,0-5.2-2.3-5.2-5.2c0-2.8,2.2-5.1,5-5.2c0.1-4.4,3.6-7.9,8-7.9
			c2.7,0,5.2,1.4,6.7,3.6c3-0.4,5.7,1.5,6.5,4.2h1.3c2.9,0,5.2,2.3,5.2,5.2S1591.1,203.6,1588.2,203.6z M1565.8,194.7
			c-2,0-3.7,1.6-3.7,3.7s1.6,3.7,3.7,3.7h22.4c2,0,3.7-1.6,3.7-3.7s-1.6-3.7-3.7-3.7h-2.6l-0.1-0.6c-0.4-2.4-2.7-4.1-5.3-3.5
			l-0.6,0.1l-0.3-0.5c-1.1-2.1-3.3-3.3-5.7-3.3c-3.6,0-6.5,2.9-6.5,6.5c0,0.2,0,0.4,0,0.6l0.1,0.8h-1.4V194.7z"/>
	</g>
	<g>
		<path class="st1" d="M197.2,725.1h-22.4c-2.9,0-5.2-2.3-5.2-5.2c0-2.8,2.2-5.1,5-5.2c0.1-4.4,3.6-7.9,8-7.9c2.7,0,5.2,1.4,6.7,3.6
			c3-0.4,5.7,1.5,6.5,4.2h1.3c2.9,0,5.2,2.3,5.2,5.2S200,725.1,197.2,725.1z M174.8,716.2c-2,0-3.7,1.6-3.7,3.7c0,2,1.6,3.7,3.7,3.7
			h22.4c2,0,3.7-1.6,3.7-3.7c0-2-1.6-3.7-3.7-3.7h-2.6l-0.1-0.6c-0.4-2.4-2.7-4.2-5.3-3.5l-0.6,0.1l-0.3-0.5
			c-1.1-2.1-3.3-3.3-5.7-3.3c-3.6,0-6.5,2.9-6.5,6.5c0,0.2,0,0.4,0,0.6l0.1,0.8L174.8,716.2L174.8,716.2z"/>
	</g>
	<g>
		<path class="st1" d="M677.1,66.6h-22.4c-2.9,0-5.2-2.3-5.2-5.2c0-2.8,2.2-5.1,5-5.2c0.1-4.4,3.6-7.9,8-7.9c2.7,0,5.2,1.4,6.7,3.6
			c3-0.4,5.7,1.5,6.5,4.2h1.3c2.9,0,5.2,2.3,5.2,5.2C682.3,64.2,680,66.6,677.1,66.6z M654.7,57.7c-2,0-3.7,1.6-3.7,3.7
			c0,2,1.6,3.7,3.7,3.7h22.4c2,0,3.7-1.6,3.7-3.7c0-2-1.6-3.7-3.7-3.7h-2.6l-0.1-0.6c-0.4-2.4-2.7-4.1-5.3-3.5l-0.6,0.1l-0.3-0.5
			c-1.1-2.1-3.3-3.3-5.7-3.3c-3.6,0-6.5,2.9-6.5,6.5c0,0.2,0,0.4,0,0.6l0.1,0.8L654.7,57.7L654.7,57.7z"/>
	</g>
	<g>
		<path class="st1" d="M1318.8,99.6h-22.4c-2.9,0-5.2-2.3-5.2-5.2c0-2.8,2.2-5.1,5-5.2c0.1-4.4,3.6-7.9,8-7.9c2.7,0,5.2,1.4,6.7,3.6
			c3-0.4,5.7,1.5,6.5,4.2h1.3c2.9,0,5.2,2.3,5.2,5.2C1324,97.3,1321.6,99.6,1318.8,99.6z M1296.4,90.8c-2,0-3.7,1.6-3.7,3.7
			s1.6,3.7,3.7,3.7h22.4c2,0,3.7-1.6,3.7-3.7s-1.6-3.7-3.7-3.7h-2.6l-0.1-0.6c-0.4-2.4-2.7-4.1-5.3-3.5l-0.6,0.1l-0.3-0.5
			c-1.1-2.1-3.3-3.3-5.7-3.3c-3.6,0-6.5,2.9-6.5,6.5c0,0.2,0,0.4,0,0.6l0.1,0.8L1296.4,90.8L1296.4,90.8z"/>
	</g>
	<g>
		<path class="st1" d="M389.7,302.1h-22.4c-2.9,0-5.2-2.3-5.2-5.2c0-2.8,2.2-5.1,5-5.2c0.1-4.4,3.6-7.9,8-7.9c2.7,0,5.2,1.4,6.7,3.6
			c3-0.4,5.7,1.5,6.5,4.2h1.3c2.9,0,5.2,2.3,5.2,5.2C394.9,299.8,392.6,302.1,389.7,302.1z M367.4,293.3c-2,0-3.7,1.6-3.7,3.7
			c0,2,1.6,3.7,3.7,3.7h22.4c2,0,3.7-1.6,3.7-3.7c0-2-1.6-3.7-3.7-3.7h-2.6l-0.1-0.6c-0.4-2.4-2.7-4.1-5.3-3.5l-0.6,0.1l-0.3-0.5
			c-1.1-2.1-3.3-3.3-5.7-3.3c-3.6,0-6.5,2.9-6.5,6.5c0,0.2,0,0.4,0,0.6l0.1,0.8h-1.4V293.3z"/>
	</g>
	<text transform="matrix(1 0 0 1 762.2572 817.4208)" class="st2 st3 st4">Coming Soon</text>
	<text transform="matrix(1 0 0 1 762.2572 817.4208)" class="st5 st3 st4">Coming Soon</text>
	<g class="st6">
		<g class="st7">
			<text transform="matrix(1 0 0 1 813.7065 329.6304)" class="st8 st3 st9">Nebula</text>
			<text transform="matrix(1 0 0 1 813.7065 329.6304)" class="st10 st3 st9">Nebula</text>
		</g>
		<path id="XMLID_19_" class="st11" d="M732.7,274.8c9.8-1.5,7.8,4.3,5.9,9.9s5,11.3,22.6,2.5s14.7-29-11.4-36.6
			c-26.1-7.5-83.5,23.8-77.2,52.2c4.2,19,55.6,30.2,92.9,13.1c36.5-16.7,46-54.2,47.4-59.8c-1.4,17.7-6.7,43-27.1,61.6
			c-24,21.8-58,23.8-56.9,26.4c1.3,3.2,28.3-0.5,46.7-10c1-0.5,6.5-3.9,13.4-8.2c4.4-2.7,7.9-5,10.3-6.5c-7.7,7.9-23,22.2-40.6,28.3
			c-8.9,3.1-19.5,5.6-19.5,5.6c-11.8,2.5-18.2,2.2-18.9,3.9c-0.4,0.9,15.1,1.4,31.3-1c0.3-0.1,0.6-0.1,0.9-0.1
			c-8.9,3.6-22.8,7.6-39.3,6.4c0,0-36.5-1-56.1-26.9c-4.8-6.4,3.4,10.2,11.5,15.1s-25.3-5.9-27.8-32.2c-2.4-26.3,9.6-55.5,30.5-68.9
			c20.8-13.5-12.5-1.8-25.6,19.5c-3.1,5-6.9,13.1-9.5,19.9c-1.6,4-2.7,7.4-3.4,9.8c-0.1,0.6-0.3,1.1-0.4,1.7
			c1.1-9.8,5.5-37.7,29.6-57.4c10.4-8.5,21.2-12.9,27.6-15.4c19-7.4,36.3-8.3,48.7-8.3c18.2,0,41.8,21.1,45.3,27
			c0.2,0.4,1.5,1.9,1.9,1.7c0.9-0.4-1.4-6.7-3-9.9c-1.8-3.7-6.6-11.2-20.5-17c-3.1-1.5-6.2-3.1-9.3-4.6c0.4,0,0.8,0,1.3,0
			c24.1,6.8,40.8,24.8,41,43.8c0.4,31.5-44.3,54.4-67.1,48.5C702.7,302.1,718,277.1,732.7,274.8z"/>
		<path class="st11" d="M752.4,259.1c-4.4-2.4-5.3-3.3-5.1-3.6c0.2-0.4,1.5-0.2,2.4,0.2C752,256.5,752.4,259,752.4,259.1z"/>
		<path class="st11" d="M743,256.4c0.5,0.3,0.9,0.5,1.2,0.7l-13.8-2c2.4-0.9,4.4-0.9,5.6-0.8C739,254.4,741.4,255.6,743,256.4z"/>
		<path class="st11" d="M713.6,261.6c-14.3,6.7-24.2,17-26.1,26.6c-1.3,6.3-0.2,13.2-0.2,13.2c0.7,4.4,2,7.9,3.2,10.4
			c-8.9-13.3-8.1-29.4,1.3-39.7C699.4,263.7,710.2,262,713.6,261.6z"/>
		<path id="XMLID_18_" class="st11" d="M629.2,314.3c0.5,3.5,1.2,5,1.6,5.8c0.9,1.7,1.9,2.9,2.7,3.7c-0.7-3-1.4-6.5-1.8-10.4
			c-0.2-2.3-0.4-4.6-0.4-6.7c-0.8-0.3-1.6-0.7-2.4-1C628.7,309.3,628.9,312.2,629.2,314.3z"/>
		<path id="XMLID_17_" class="st11" d="M811.8,305.1c2.4-3.3,2.7-7.6,0.8-11.2c-0.1,2.1-0.7,5.8-3.2,9.8c-1.8,2.9-4,4.9-5.6,6.1
			C804.6,309.7,809,308.9,811.8,305.1z"/>
		<path id="XMLID_16_" class="st11" d="M810,315.9c0.1-0.7,0.3-1.8,0-3.1c-0.2-1-0.7-1.8-1-2.4c0,0.7-0.2,1.6-0.4,2.6
			c-0.1,0.5-0.4,1.3-0.9,2.3c-0.4,0.9-1.3,2.2-2.7,3.6c0.6-0.1,1.9-0.3,3.1-1.1C809.1,317.1,809.7,316.3,810,315.9z"/>
		<path id="XMLID_5_" class="st11" d="M742.3,215.4c2.9,0.4,5.7,0.9,8.6,1.3c-1.6-1-4.7-2.5-8.9-3.1c-3.9-0.5-7.2,0-9.1,0.4
			C736.1,214.5,739.2,214.9,742.3,215.4z"/>
	</g>
	<g>
		<path class="st1" d="M710.6,653.2h-22.4c-2.9,0-5.2-2.3-5.2-5.2c0-2.8,2.2-5.1,5-5.2c0.1-4.4,3.6-7.9,8-7.9c2.7,0,5.2,1.4,6.7,3.6
			c3-0.4,5.7,1.5,6.5,4.2h1.3c2.9,0,5.2,2.3,5.2,5.2S713.5,653.2,710.6,653.2z M688.3,644.3c-2,0-3.7,1.6-3.7,3.7
			c0,2,1.6,3.7,3.7,3.7h22.4c2,0,3.7-1.6,3.7-3.7c0-2-1.6-3.7-3.7-3.7H708l-0.1-0.6c-0.4-2.4-2.7-4.1-5.3-3.5l-0.6,0.1l-0.3-0.5
			c-1.1-2.1-3.3-3.3-5.7-3.3c-3.6,0-6.5,2.9-6.5,6.5c0,0.2,0,0.4,0,0.6l0.1,0.8L688.3,644.3L688.3,644.3z"/>
	</g>
	<g>
		<path class="st1" d="M1719.6,438.2h-22.4c-2.9,0-5.2-2.3-5.2-5.2c0-2.8,2.2-5.1,5-5.2c0.1-4.4,3.6-7.9,8-7.9
			c2.7,0,5.2,1.4,6.7,3.6c3-0.4,5.7,1.5,6.5,4.2h1.3c2.9,0,5.2,2.3,5.2,5.2C1724.8,435.8,1722.5,438.2,1719.6,438.2z M1697.3,429.3
			c-2,0-3.7,1.6-3.7,3.7s1.6,3.7,3.7,3.7h22.4c2,0,3.7-1.6,3.7-3.7s-1.6-3.7-3.7-3.7h-2.6l-0.1-0.6c-0.4-2.4-2.7-4.1-5.3-3.5
			l-0.6,0.1l-0.3-0.5c-1.1-2.1-3.3-3.3-5.7-3.3c-3.6,0-6.5,2.9-6.5,6.5c0,0.2,0,0.4,0,0.6l0.1,0.8h-1.4V429.3z"/>
	</g>
	<g>
		<path class="st1" d="M1318.6,709.2h-22.4c-2.9,0-5.2-2.3-5.2-5.2c0-2.8,2.2-5.1,5-5.2c0.1-4.4,3.6-7.9,8-7.9
			c2.7,0,5.2,1.4,6.7,3.6c3-0.4,5.7,1.5,6.5,4.2h1.3c2.9,0,5.2,2.3,5.2,5.2S1321.5,709.2,1318.6,709.2z M1296.3,700.3
			c-2,0-3.7,1.6-3.7,3.7c0,2,1.6,3.7,3.7,3.7h22.4c2,0,3.7-1.6,3.7-3.7c0-2-1.6-3.7-3.7-3.7h-2.6l-0.1-0.6c-0.4-2.4-2.7-4.1-5.3-3.5
			l-0.6,0.1l-0.3-0.5c-1.1-2.1-3.3-3.3-5.7-3.3c-3.6,0-6.5,2.9-6.5,6.5c0,0.2,0,0.4,0,0.6l0.1,0.8L1296.3,700.3L1296.3,700.3z"/>
	</g>
	<g class="st6">
		<path class="st11" d="M722,619.2h-79.2c-6.6,0-12-5.4-12-12V528c0-6.6,5.4-12,12-12H722c6.6,0,12,5.4,12,12v79.2
			C734,613.8,728.6,619.2,722,619.2z"/>
		<path class="st11" d="M883.6,619.2h-79.2c-6.6,0-12-5.4-12-12V528c0-6.6,5.4-12,12-12h79.2c6.6,0,12,5.4,12,12v79.2
			C895.6,613.8,890.2,619.2,883.6,619.2z"/>
		<path class="st11" d="M1046.2,619.2H967c-6.6,0-12-5.4-12-12V528c0-6.6,5.4-12,12-12h79.2c6.6,0,12,5.4,12,12v79.2
			C1058.2,613.8,1052.8,619.2,1046.2,619.2z"/>
		<path class="st11" d="M1207.8,619.2h-79.2c-6.6,0-12-5.4-12-12V528c0-6.6,5.4-12,12-12h79.2c6.6,0,12,5.4,12,12v79.2
			C1219.8,613.8,1214.4,619.2,1207.8,619.2z"/>
		<g class="st7">
			<text transform="matrix(1 0 0 1 651.6438 580.3308)" class="st0 st3 st12">6</text>
		</g>
		<g class="st7">
			<text transform="matrix(1 0 0 1 659.0159 611.2108)" class="st0 st3 st13">DAYS</text>
		</g>
		<g class="st7">
			<g>
				<text transform="matrix(1 0 0 1 801.5461 580.5388)" class="st0 st3 st12 st14">13</text>
			</g>
		</g>
		<g class="st7">
			<g>
				<text transform="matrix(1 0 0 1 818.2219 611.2108)" class="st0 st3 st13">HOURS</text>
			</g>
		</g>
		<g class="st7">
			<text transform="matrix(1 0 0 1 954.6439 580.3308)" class="st0 st3 st12 st14">29</text>
		</g>
		<g class="st7">
			<g>
				<text transform="matrix(1 0 0 1 972.0159 611.2108)" class="st0 st3 st13">MINUTES</text>
			</g>
		</g>
		<g class="st7">
			<g>
				<text transform="matrix(1 0 0 1 1120.5461 580.5388)" class="st0 st3 st12 st14">57</text>
			</g>
		</g>
		<g class="st7">
			<g>
				<text transform="matrix(1 0 0 1 1132.2219 611.2108)" class="st0 st3 st13">SECONDS</text>
			</g>
		</g>
	</g>
</g>
<g id="Layer_2_1_">
</g>
<g id="Layer_3">
</g>
<g id="Layer_4">
</g>
<g id="Layer_5">
</g>
<g id="Layer_6">
</g>
<g id="Layer_7">
</g>
<g id="Layer_8">
</g>
<g id="Layer_9">
</g>
<g id="Layer_10">
</g>
</svg>
